# xmcd
#
# Track frame offsets:
#	150
#	24969
#	47212
#	62607
#	75695
#	98912
#	123522
#	138515
#
# Disc length: 2114 seconds
#
# Revision: 2
# Processed by: cddbd v1.5.1PL0 Copyright (c) Steve Scherf et al.
# Submitted via: EasyCDDAExtractor 8.2.1.1
#
DISCID=65084008
DTITLE=Nina Simone - Porgy
DYEAR=1995
DGENRE=Blues
TTITLE0=It's Cold Out There
TTITLE1=I Loves You Porgy
TTITLE2=I Sing Just To Know That I'm Alive
TTITLE3=For A While
TTITLE4=Fodder On Her Wings
TTITLE5=Touching And Caring
TTITLE6=Saratoga
TTITLE7=You Must Have Another Lover
EXTD=
EXTT0=
EXTT1=
EXTT2=
EXTT3=
EXTT4=
EXTT5=
EXTT6=
EXTT7=
PLAYORDER=
